<?xml version="1.0" encoding="UTF-8"?><svg id="Laag_2" xmlns="http://www.w3.org/2000/svg" viewBox="0 0 445.46 126.18"><defs><style>.cls-1{fill:#fff;}</style></defs><g id="Laag_1-2"><path class="cls-1" d="M306.1,101.12h-4.39v24.65h4.39v-17.2c0-2.45,1.16-3.93,2.73-3.93s2.45,1.34,2.45,3.84v17.29h4.39v-18.22c0-4.16-1.8-6.84-4.99-6.84-2.31,0-3.65,1.62-4.58,3.56v-3.14Zm-44.11,0h-4.39v24.65h4.39v-24.65Zm.05-8h-4.53v4.81h4.53v-4.81Zm-20.07,8h-4.39v18.26c0,4.12,1.8,6.8,4.99,6.8,2.31,0,3.65-1.62,4.58-3.56v3.14h4.39v-24.65h-4.39v17.2c0,2.45-1.16,3.93-2.73,3.93s-2.45-1.34-2.45-3.84v-17.29Zm-19.6-8h-4.39v32.64h4.39v-17.2c0-2.45,1.16-3.93,2.73-3.93s2.45,1.34,2.45,3.84v17.29h4.39v-18.22c0-4.16-1.8-6.84-4.99-6.84-2.31,0-3.65,1.62-4.58,3.56v-11.14Zm-47.9,.28h-11.98v32.37h12.11v-4.3h-7.54v-9.85h6.61v-4.3h-6.61v-9.62h7.4v-4.3ZM17.94,35.42c-.09-8.33,4.76-18.39,17.11-18.39,4.3,0,9.06,1.19,13.64,5.58l11.16-10.98C52.62,4.58,44.29,1.38,35.05,1.38,10.98,1.38-.09,18.86,0,35.33c.06,11.95,4.71,23.17,15.79,29.02l39.52-1.38c1.9-1.24,3.73-2.68,5.46-4.39l-10.61-11.9c-4.58,4.67-10.8,6.5-15.1,6.5-12.63,0-17.02-9.43-17.11-17.75m61.61,26.64l18.03-.63V2.84h-18.03V62.06Zm82.83-2.89l21.36-.75V2.84h-18.21V24.81c.09,2.47,.09,5.4,.55,13.09L139,2.84h-15.38V60.52l18.3-.64v-13.48l-.27-14,20.73,26.77Zm27.01,66.6h4.39v-18.22c0-4.16-1.8-6.84-4.99-6.84-2.31,0-3.65,1.62-4.58,3.56v-3.14h-4.39v24.65h4.39v-17.2c0-2.45,1.16-3.93,2.73-3.93s2.45,1.34,2.45,3.84v17.29Zm19.1-24.65l-4.53,10.68v-18.68h-4.39v32.64h4.39v-7.12l1.48-3.24,3.01,10.36h4.85l-4.62-14.66,4.62-9.99h-4.81Zm56.6-80.57c3.57-1.64,6.65-3.67,9.23-6.09V.74c-3.32,2.79-6.45,4.97-9.38,6.55-2.93,1.58-5.82,2.37-8.65,2.37-1.76,0-3.66-.32-5.69-.95-2.03-.63-5.18-1.96-9.45-3.97-.66-.33-2.08-.95-4.28-1.88-2.2-.92-4.27-1.63-6.22-2.12-1.95-.49-3.74-.74-5.38-.74-3.32,0-6.54,.73-9.66,2.18-3.12,1.46-6.4,3.58-9.85,6.37v13.85c4.39-3.53,7.94-5.92,10.65-7.17,2.71-1.25,5.37-1.88,8-1.88s6.24,1.11,11.2,3.32c4.88,2.22,8.75,3.83,11.6,4.83,2.85,1.01,5.47,1.51,7.85,1.51,3.12,0,6.46-.82,10.03-2.46m0,24.33c3.57-1.64,6.65-3.67,9.23-6.09v-13.72c-3.32,2.79-6.45,4.97-9.38,6.55-2.93,1.58-5.82,2.37-8.65,2.37-1.76,0-3.66-.32-5.69-.95-2.03-.64-5.18-1.96-9.45-3.97-.66-.33-2.08-.95-4.28-1.88-2.2-.92-4.27-1.63-6.22-2.12-1.95-.49-3.74-.74-5.38-.74-3.32,0-6.54,.73-9.66,2.18-3.12,1.46-6.4,3.58-9.85,6.37v13.84c4.39-3.53,7.94-5.92,10.65-7.17,2.71-1.25,5.37-1.88,8-1.88s6.24,1.11,11.2,3.32c4.88,2.22,8.75,3.83,11.6,4.83,2.85,1.01,5.47,1.51,7.85,1.51,3.12,0,6.46-.82,10.03-2.46m0,24.33c3.57-1.64,6.65-3.67,9.23-6.09v-13.72c-3.32,2.79-6.45,4.97-9.38,6.55-2.93,1.58-5.82,2.37-8.65,2.37-1.76,0-3.66-.32-5.69-.95-2.03-.63-5.18-1.96-9.45-3.97-.66-.33-2.08-.95-4.28-1.88-2.2-.92-4.27-1.63-6.22-2.12-1.95-.49-3.74-.74-5.38-.74-3.32,0-6.54,.73-9.66,2.18-3.12,1.46-6.4,3.58-9.85,6.37v13.85c4.39-3.53,7.94-5.92,10.65-7.17,2.71-1.25,5.37-1.88,8-1.88s6.24,1.11,11.2,3.32c4.88,2.22,8.75,3.83,11.6,4.83,2.85,1,5.47,1.51,7.85,1.51,3.12,0,6.46-.82,10.03-2.46m6.56,52.81l7.21-17.8v-3.1h-11.61v3.74h6.89l-7.21,17.85v3.05h11.88v-3.75h-7.17Zm20.81-10.08h-5.55c.14-4.99,1.3-7.26,2.91-7.26s2.64,2.68,2.64,7.26m4.16,1.11c0-8-2.73-12.3-6.8-12.3s-7.26,4.21-7.26,12.3v.97c0,8.05,3.79,12.16,8.23,12.16,2.04,0,3.42-.56,5.27-1.71l-.37-4.07c-1.62,1.06-2.68,1.67-4.3,1.67-2.26,0-4.21-1.9-4.44-6.61h9.66v-2.4Zm52.24-60.4l17.94-.63V2.84h-18.85l-16.84,21.69-16.84-21.69h-18.94V54.53l17.94-.63V28.83l16.02,19.31h3.2l16.38-19.4v23.92Zm74.73-11.47h-16.38l8.24-20.41,8.14,20.41Zm21.87,8.1L424.69,2.84h-18.3l-21.79,48.57,60.86-2.12Z"/></g></svg>