<?xml version="1.0" encoding="UTF-8"?>
<svg width="433px" height="51px" viewBox="0 0 433 51" version="1.1" xmlns="http://www.w3.org/2000/svg" xmlns:xlink="http://www.w3.org/1999/xlink">
    <title>Group 3@3x</title>
    <g id="Page-1" stroke="none" stroke-width="1" fill="none" fill-rule="evenodd">
        <g id="Desktop-HD-Home-highlight-film" transform="translate(-74.000000, -55.000000)" fill-rule="nonzero">
            <g id="Group-3" transform="translate(74.730000, 55.340000)">
                <path d="M15.015,50.31 C16.9,50.31 18.59,49.985 20.215,48.945 L20.215,43.225 C18.98,43.875 17.745,44.2 16.315,44.2 C7.60788889,44.2 6.91725185,32.5170765 6.89085668,25.9216105 L6.89051837,24.8601819 C6.90384629,18.5193171 7.25173913,6.11 16.055,6.11 C17.55,6.11 18.915,6.695 20.215,7.345 L20.215,1.43 C18.33,0.325 16.77,0 14.56,0 C1.36825,0 0.025909,15.799212 0.000381355,25.6386809 L0,25.935 C0,36.205 1.755,50.31 15.015,50.31 Z M31.72,49.66 L31.72,0.65 L25.22,0.65 L25.22,49.66 L31.72,49.66 Z M46.15,49.66 L46.15,31.655 L45.175,15.21 L44.785,12.025 L44.915,11.895 L56.355,49.66 L62.4,49.66 L62.4,0.65 L55.9,0.65 L55.9,18.135 L57.46,37.765 L57.33,37.895 L45.89,0.65 L39.65,0.65 L39.65,49.66 L46.15,49.66 Z M87.815,49.66 L87.815,44.005 L76.83,44.005 L76.83,27.365 L86.645,27.365 L86.645,21.71 L76.83,21.71 L76.83,6.305 L87.815,6.305 L87.815,0.65 L70.33,0.65 L70.33,49.66 L87.815,49.66 Z M96.655,49.66 L98.54,15.86 L98.67,15.86 L104.975,49.66 L109.46,49.66 L114.53,22.88 L115.635,15.86 L115.765,15.86 L115.895,22.295 L116.285,31.395 L117.455,49.66 L123.825,49.66 L119.275,0.65 L113.555,0.65 L109.33,22.23 L107.38,33.995 L107.185,36.01 L107.055,36.01 L100.1,0.65 L94.51,0.65 L90.48,49.66 L96.655,49.66 Z M132.015,49.66 L133.835,40.105 L143.585,40.105 L145.405,49.66 L151.97,49.66 L141.44,0.65 L136.305,0.65 L125.645,49.66 L132.015,49.66 Z M142.61,35.035 L134.81,35.035 L138.71,10.14 L138.84,10.14 L141.31,27.95 L142.61,35.035 Z" id="CINEMA" fill="#A8C816"></path>
                <path d="M166.79,50.31 C178.165,50.31 178.815,34.32 178.815,25.155 C178.815,23.2128 178.78341,21.15477 178.667159,19.0855361 L178.6252,18.39552 C178.022,9.1936 175.63,0 166.79,0 C156.494,0 154.798377,12.486474 154.765495,24.7824656 L154.765,25.155 C154.765,25.9558 154.77137,26.7677475 154.786897,27.5853579 L154.802513,28.2874258 C155.075342,38.9526085 157.03025,50.31 166.79,50.31 Z M166.79,45.89 C160.966591,45.89 159.750317,37.570319 159.504876,29.7990822 L159.486814,29.1617678 C159.457434,27.9962909 159.447836,26.8487836 159.445551,25.7495878 L159.445551,24.5732627 C159.462751,15.9645136 159.926,4.10222222 166.79,4.42 C172.613409,4.42 173.829683,12.739681 174.075124,20.5109178 L174.093186,21.1482322 C174.127907,22.525614 174.135,23.8778977 174.135,25.155 C174.135,26.4321023 174.127907,27.784386 174.093186,29.1617678 L174.075124,29.7990822 C173.829683,37.570319 172.613409,45.89 166.79,45.89 Z M195.78,50.31 C207.155,50.31 207.805,34.32 207.805,25.155 C207.805,23.2128 207.77341,21.15477 207.657159,19.0855361 L207.6152,18.39552 C207.012,9.1936 204.62,0 195.78,0 C185.484,0 183.788377,12.486474 183.755495,24.7824656 L183.755,25.155 C183.755,25.9558 183.76137,26.7677475 183.776897,27.5853579 L183.792513,28.2874258 C184.065342,38.9526085 186.02025,50.31 195.78,50.31 Z M195.78,45.89 C189.956591,45.89 188.740317,37.570319 188.494876,29.7990822 L188.476814,29.1617678 C188.447434,27.9962909 188.437836,26.8487836 188.435551,25.7495878 L188.435551,24.5732627 C188.452751,15.9645136 188.916,4.10222222 195.78,4.42 C201.603409,4.42 202.819683,12.739681 203.065124,20.5109178 L203.083186,21.1482322 C203.117907,22.525614 203.125,23.8778977 203.125,25.155 C203.125,26.4321023 203.117907,27.784386 203.083186,29.1617678 L203.065124,29.7990822 C202.819683,37.570319 201.603409,45.89 195.78,45.89 Z M221.325,50.31 C228.995,50.31 233.61,43.55 233.61,36.4 C233.61,30.0226415 229.907615,26.8848701 225.995661,24.0941972 L225.525444,23.7607974 C225.446981,23.7054468 225.368491,23.6501887 225.29,23.595 C225.121,23.4806 224.952104,23.366512 224.783574,23.252528 L224.279345,22.91068 C220.426024,20.289048 216.905,17.6124 216.905,12.35 C216.905,8.19 219.44,4.42 223.99,4.42 C227.11,4.42 229.255,6.175 231.205,8.385 L231.205,2.6 C228.865,0.975 226.395,0 223.47,0 C216.255,0 212.225,6.435 212.225,13 C212.225,20.02 216.45,23.205 220.61,26.065 C221.026,26.3575 221.44265,26.6461 221.855595,26.934375 L222.349072,27.2803778 C225.868916,29.762226 228.9859,32.3258 228.93,37.245 C228.995,41.665 226.33,45.89 221.52,45.89 C218.4,45.89 215.67,44.135 213.59,41.925 L213.59,47.84 C215.8,49.53 218.595,50.31 221.325,50.31 Z M247.975,49.66 L247.975,4.81 L255.32,4.81 L255.32,0.65 L236.08,0.65 L236.08,4.81 L243.425,4.81 L243.425,49.66 L247.975,49.66 Z M275.08,49.66 L275.08,45.5 L264.225,45.5 L264.225,26.26 L274.755,26.26 L274.755,22.1 L264.225,22.1 L264.225,4.81 L275.08,4.81 L275.08,0.65 L259.675,0.65 L259.675,49.66 L275.08,49.66 Z M286.195,49.66 L286.195,25.675 L286.325,25.675 L296.725,49.66 L301.535,49.66 L290.68,25.74 C298.545,25.48 299.91,19.37 299.91,13.13 C299.91,1.9416129 294.164771,0.76471384 287.836028,0.659425665 L287.398701,0.653754751 C287.106616,0.650961961 286.813548,0.65 286.52,0.65 L281.645,0.65 L281.645,49.66 L286.195,49.66 Z M287.82,21.97 L286.195,21.97 L286.195,4.81 L287.105,4.81 C292.89,4.81 295.23,5.59 295.23,13.325 C295.23,19.76 294.19,21.97 287.82,21.97 Z M321.815,49.66 L321.815,45.5 L310.96,45.5 L310.96,26.26 L321.49,26.26 L321.49,22.1 L310.96,22.1 L310.96,4.81 L321.815,4.81 L321.815,0.65 L306.41,0.65 L306.41,49.66 L321.815,49.66 Z M332.93,49.66 L332.93,0.65 L328.38,0.65 L328.38,49.66 L332.93,49.66 Z M355.94,49.66 L355.94,45.5 L345.28,45.5 L345.28,0.65 L340.73,0.65 L340.73,49.66 L355.94,49.66 Z M360.815,49.66 L362.57,39.585 L372.97,39.585 L374.79,49.66 L379.665,49.66 L369.85,0.65 L365.56,0.65 L355.94,49.66 L360.815,49.66 Z M372.255,35.62 L363.35,35.62 L366.21,16.835 C366.73,13.52 367.055,10.14 367.51,6.825 L367.77,6.825 C368.16,10.14 368.42,13.52 369.005,16.835 L372.255,35.62 Z M387.53,49.66 L387.53,19.89 C387.53,16.705 387.205,13.585 387.01,10.4 L387.27,10.4 C387.855,12.48 388.245,14.69 388.96,16.705 L400.01,49.66 L403.975,49.66 L403.975,0.65 L400.01,0.65 L400.01,33.28 C400.01,35.425 400.335,37.635 400.465,39.78 L400.27,39.78 C399.815,38.09 399.36,36.4 398.775,34.71 L387.53,0.65 L383.565,0.65 L383.565,49.66 L387.53,49.66 Z M417.105,49.66 C429.13,49.66 432.25,44.33 432.25,25.155 C432.25,1.82 426.14,0.65 416.78,0.65 L411.84,0.65 L411.84,49.66 L417.105,49.66 Z M417.69,45.5 L416.39,45.5 L416.39,4.81 L417.17,4.81 C425.815,4.81 427.57,8.32 427.57,25.155 C427.57,39.325 426.465,45.5 417.69,45.5 Z" id="OOSTEREILAND" fill="#FFFFFF"></path>
            </g>
        </g>
    </g>
</svg>