<?xml version="1.0" encoding="UTF-8"?><svg id="Laag_2" xmlns="http://www.w3.org/2000/svg" viewBox="0 0 445.46 126.18"><g id="Laag_1-2"><path d="M324.92,112.78c0-5.09,1.06-7.91,2.82-7.91s3,2.78,3,7.81v1.53c0,5.09-1.29,7.81-3,7.81s-2.82-2.78-2.82-7.86v-1.39Zm-4.39-.23v1.8c0,8.6,2.5,11.84,5.59,11.84,2.4,0,3.7-2.13,4.53-3.98v3.56h4.44v-32.64h-4.44v11.51c-.83-1.85-2.13-3.93-4.53-3.93-3.1,0-5.59,3.33-5.59,11.84m-14.84-11.42h-4.39v24.65h4.39v-17.2c0-2.45,1.16-3.93,2.73-3.93s2.45,1.34,2.45,3.84v17.29h4.39v-18.22c0-4.16-1.8-6.84-4.99-6.84-2.31,0-3.65,1.62-4.58,3.56v-3.14Zm-39.35,0h-4.39v24.65h4.39v-24.65Zm.05-8h-4.53v4.81h4.53v-4.81Zm-19.37,18.82c.14-4.99,1.3-7.26,2.91-7.26s2.64,2.68,2.64,7.26h-5.55Zm-4.35,1.11v.97c0,8.05,3.79,12.16,8.23,12.16,2.03,0,3.42-.56,5.27-1.71l-.37-4.07c-1.62,1.06-2.68,1.67-4.3,1.67-2.27,0-4.21-1.9-4.44-6.61h9.66v-2.4c0-8-2.73-12.3-6.8-12.3s-7.26,4.21-7.26,12.3m-7.95-11.93h-4.39v24.65h4.39v-14.15c0-3.74,1.66-5.55,4.39-5.55h.09v-5.22c-2.31-.14-3.7,1.39-4.49,3.51v-3.24Zm-19.19,10.82c.14-4.99,1.29-7.26,2.91-7.26s2.64,2.68,2.64,7.26h-5.55Zm-4.35,1.11v.97c0,8.05,3.79,12.16,8.23,12.16,2.03,0,3.42-.56,5.27-1.71l-.37-4.07c-1.62,1.06-2.68,1.67-4.3,1.67-2.27,0-4.21-1.9-4.44-6.61h9.66v-2.4c0-8-2.73-12.3-6.8-12.3s-7.26,4.21-7.26,12.3m-43.05-.23c0-5.32,1.25-8.14,3.05-8.14s3.01,2.82,3.01,8.14v1.3c0,5.32-1.25,8.14-3.01,8.14s-3.05-2.82-3.05-8.14v-1.3Zm-4.39,.09v1.16c0,7.86,3.24,12.11,7.44,12.11s7.4-4.25,7.4-12.11v-1.16c0-7.86-3.19-12.16-7.4-12.16s-7.44,4.3-7.44,12.16m-16.83-4.02c0-8.37,1.53-11.74,3.7-11.74s3.7,3.38,3.7,11.74v1.39c0,8.37-1.53,11.74-3.7,11.74s-3.7-3.38-3.7-11.74v-1.39Zm-4.62,0v1.39c0,10.91,3.42,15.91,8.32,15.91s8.32-4.99,8.32-15.91v-1.39c0-10.91-3.42-15.91-8.32-15.91s-8.32,4.99-8.32,15.91M17.94,35.42c-.09-8.33,4.76-18.39,17.11-18.39,4.3,0,9.06,1.19,13.64,5.58l11.16-10.98C52.62,4.58,44.29,1.38,35.05,1.38,10.98,1.38-.09,18.86,0,35.33c.06,11.95,4.71,23.17,15.79,29.02l39.52-1.38c1.9-1.24,3.73-2.69,5.46-4.39l-10.61-11.9c-4.58,4.67-10.8,6.5-15.1,6.5-12.63,0-17.02-9.43-17.11-17.75m61.61,26.64l18.03-.63V2.84h-18.03V62.06Zm82.83-2.89l21.36-.75V2.84h-18.21V24.8c.09,2.47,.09,5.4,.55,13.09L139,2.84h-15.38V60.52l18.3-.64v-13.48l-.27-14,20.73,26.77Zm32.14,60.45v-.09c0-2.77-1.02-4.76-4.21-7.81-2.64-2.64-3.19-3.47-3.19-4.67v-.09c0-1.3,.97-2.17,2.45-2.17,1.29,0,2.59,.42,3.84,1.06v-4.35c-1.34-.51-2.5-.69-4.02-.69-3.84,0-6.57,2.4-6.57,6.29v.09c0,2.91,1.48,5.04,4.3,7.81,2.54,2.4,3.1,3.47,3.1,4.72v.09c0,1.43-1.06,2.36-2.5,2.36s-2.96-.56-4.76-1.53v4.39c1.57,.69,3.28,1.16,4.99,1.16,3.65,0,6.57-2.54,6.57-6.57m12.76-18.49h-3.19v-6.47h-4.39v6.47h-1.76v3.65h1.76v16.78c0,3.56,2.22,4.49,4.85,4.49,.93,0,2.04-.28,2.73-.65v-3.61c-.42,.18-.92,.28-1.39,.28-1.16,0-1.8-.46-1.8-1.9v-15.4h3.19v-3.65Zm57.8-80.57c3.57-1.64,6.65-3.67,9.23-6.09V.74c-3.32,2.79-6.45,4.97-9.38,6.55-2.93,1.58-5.82,2.37-8.65,2.37-1.76,0-3.66-.32-5.69-.95-2.03-.64-5.18-1.96-9.45-3.97-.66-.33-2.08-.95-4.28-1.88-2.2-.92-4.27-1.63-6.22-2.12-1.95-.49-3.74-.74-5.38-.74-3.32,0-6.54,.73-9.66,2.18-3.12,1.46-6.4,3.58-9.85,6.37v13.84c4.39-3.53,7.94-5.92,10.65-7.17,2.71-1.25,5.37-1.88,8-1.88s6.24,1.11,11.2,3.32c4.88,2.22,8.75,3.83,11.6,4.83,2.85,1.01,5.47,1.51,7.85,1.51,3.12,0,6.46-.82,10.03-2.46m0,24.33c3.57-1.64,6.65-3.67,9.23-6.09v-13.72c-3.32,2.79-6.45,4.97-9.38,6.55-2.93,1.58-5.82,2.37-8.65,2.37-1.76,0-3.66-.32-5.69-.95-2.03-.64-5.18-1.96-9.45-3.97-.66-.33-2.08-.95-4.28-1.88-2.2-.92-4.27-1.63-6.22-2.12-1.95-.49-3.74-.74-5.38-.74-3.32,0-6.54,.73-9.66,2.18-3.12,1.46-6.4,3.58-9.85,6.37v13.84c4.39-3.53,7.94-5.92,10.65-7.17,2.71-1.25,5.37-1.88,8-1.88s6.24,1.11,11.2,3.32c4.88,2.22,8.75,3.83,11.6,4.83,2.85,1.01,5.47,1.51,7.85,1.51,3.12,0,6.46-.82,10.03-2.46m0,24.33c3.57-1.64,6.65-3.67,9.23-6.09v-13.72c-3.32,2.79-6.45,4.97-9.38,6.55-2.93,1.58-5.82,2.37-8.65,2.37-1.76,0-3.66-.32-5.69-.95-2.03-.63-5.18-1.96-9.45-3.97-.66-.33-2.08-.95-4.28-1.88-2.2-.92-4.27-1.63-6.22-2.12-1.95-.49-3.74-.74-5.38-.74-3.32,0-6.54,.73-9.66,2.18-3.12,1.46-6.4,3.58-9.85,6.37v13.85c4.39-3.53,7.94-5.92,10.65-7.17,2.71-1.25,5.37-1.88,8-1.88s6.24,1.11,11.2,3.32c4.88,2.22,8.75,3.83,11.6,4.83,2.85,1,5.47,1.51,7.85,1.51,3.12,0,6.46-.82,10.03-2.46m7.4,56.56h4.39v-32.64h-4.39v32.64Zm18.73-6.84c0,2.08-1.16,3.56-2.68,3.56-1.43,0-2.36-1.29-2.36-4.02v-.55c0-2.68,.97-4.07,2.64-4.07,.79,0,1.71,.32,2.4,.65v4.44Zm4.35-9.94c0-5.32-2.68-8.14-7.4-8.14-1.99,0-3.42,.37-4.99,1.06v4.21c1.39-.65,2.73-1.16,4.25-1.16,2.45,0,3.79,1.53,3.79,4.35v1.94c-1.06-.56-2.22-.92-3.51-.92-3.51,0-5.78,2.59-5.78,7.86v.65c0,4.44,2.08,7.35,4.99,7.35,1.94,0,3.28-1.16,4.25-3.33v2.91h4.39v-16.78Zm53.3-56.33l17.94-.63V2.84h-18.85l-16.84,21.69-16.84-21.69h-18.94V54.53l17.94-.63V28.83l16.02,19.31h3.2l16.38-19.4v23.92Zm74.73-11.47h-16.38l8.24-20.41,8.14,20.41Zm21.87,8.1L424.69,2.84h-18.3l-21.79,48.57,60.86-2.12Z"/></g></svg>