<svg xmlns="http://www.w3.org/2000/svg" viewBox="0 0 244.2 34.02"><defs><style>.cls-1{fill:#1d1d1b;}.cls-2{fill:#ef7b31;}</style></defs><g id="Laag_2" data-name="Laag 2"><g id="Laag_1-2" data-name="Laag 1"><path class="cls-1" d="M228.66,15.34a3.29,3.29,0,0,1-2.53-1.05,4,4,0,0,1-1-2.72,4,4,0,0,1,1-2.72,3.29,3.29,0,0,1,2.53-1,3.33,3.33,0,0,1,2.54,1,3.8,3.8,0,0,1,1,2.72,3.85,3.85,0,0,1-1,2.72,3.33,3.33,0,0,1-2.54,1.05M232.19.53V7.37a4.65,4.65,0,0,0-1.76-1.6A5.3,5.3,0,0,0,228,5.21a5.85,5.85,0,0,0-3,.79,5.3,5.3,0,0,0-2.06,2.21,7,7,0,0,0-.73,3.28,7.29,7.29,0,0,0,.74,3.33,5.44,5.44,0,0,0,2.07,2.25,5.94,5.94,0,0,0,3.1.8,5.33,5.33,0,0,0,2.45-.54,4.46,4.46,0,0,0,1.73-1.59v2h3V.53ZM210.63,5.21a4.69,4.69,0,0,0-4.45,2.43V5.32h-3v12.4h3v-6.1a3.74,3.74,0,0,1,.87-2.55,3.09,3.09,0,0,1,2.38-1,2.72,2.72,0,0,1,2,.75,2.82,2.82,0,0,1,.74,2v6.86h3V10A4.84,4.84,0,0,0,214,6.48a4.52,4.52,0,0,0-3.37-1.27m-23.95,5.36a3.54,3.54,0,0,1,1.1-2.19,3.21,3.21,0,0,1,2.21-.8,3.17,3.17,0,0,1,2.27.81,3,3,0,0,1,.9,2.18ZM190,5.23a6.65,6.65,0,0,0-3.27.8,5.68,5.68,0,0,0-2.24,2.24,6.7,6.7,0,0,0-.8,3.29,6.61,6.61,0,0,0,.79,3.28,5.42,5.42,0,0,0,2.24,2.21,6.85,6.85,0,0,0,3.35.79,7.65,7.65,0,0,0,3-.56,6.28,6.28,0,0,0,2.26-1.58L193.64,14a4.4,4.4,0,0,1-1.52,1,4.73,4.73,0,0,1-1.82.36,3.6,3.6,0,0,1-2.31-.75,3.54,3.54,0,0,1-1.24-2.07h9.16c0-.2,0-.5,0-.9a7,7,0,0,0-1.49-4.75A5.66,5.66,0,0,0,190,5.23m-11.24,12.5-4.87-7.6,4.59-4.78H175l-5.1,5.15V.53h-3v17.2h3V14.3l1.9-2,3.36,5.42Zm-18.67,0-4.87-7.6,4.59-4.78H156.3l-5.1,5.15V.53h-3v17.2h3V14.3l1.9-2,3.36,5.42ZM131.6,10.57a3.54,3.54,0,0,1,1.1-2.19,3.52,3.52,0,0,1,4.48,0,3,3,0,0,1,.9,2.18Zm3.29-5.34a6.65,6.65,0,0,0-3.27.8,5.68,5.68,0,0,0-2.24,2.24,6.7,6.7,0,0,0-.8,3.29,6.61,6.61,0,0,0,.79,3.28,5.42,5.42,0,0,0,2.24,2.21,6.85,6.85,0,0,0,3.35.79,7.65,7.65,0,0,0,3-.56,6.28,6.28,0,0,0,2.26-1.58L138.56,14A4.4,4.4,0,0,1,137,15a4.73,4.73,0,0,1-1.82.36,3.6,3.6,0,0,1-2.31-.75,3.54,3.54,0,0,1-1.24-2.07h9.16c0-.2,0-.5,0-.9a7,7,0,0,0-1.49-4.75,5.67,5.67,0,0,0-4.47-1.7m-27.71,12.5h3.08L113.21,9l3,8.74h3.08l4.5-12.4h-3l-3,9.37-3-9.37h-3l-2.94,9.37-3-9.37-3.11,0Zm-9.2,0-4.87-7.6L97.7,5.35H94.22l-5.1,5.15V.53h-3v17.2h3V14.3l1.9-2,3.36,5.42ZM74.57,5.33v6.12A3.85,3.85,0,0,1,73.74,14a2.9,2.9,0,0,1-2.27,1,2.6,2.6,0,0,1-2-.74,2.83,2.83,0,0,1-.71-2V5.33h-3V13.1A4.83,4.83,0,0,0,67,16.58a4.31,4.31,0,0,0,3.29,1.28,4.44,4.44,0,0,0,4.31-2.41v2.29h3V5.34h-3ZM55.18,7.72V5.33h-3v12.4h3v-6A3.42,3.42,0,0,1,56.33,9a4.1,4.1,0,0,1,3.07-.89V5.22a5.13,5.13,0,0,0-2.52.66,4.47,4.47,0,0,0-1.7,1.84M37.12,15.34a3.3,3.3,0,0,1-2.53-1.05,4,4,0,0,1-1-2.72,4,4,0,0,1,1-2.72,3.29,3.29,0,0,1,2.53-1,3.33,3.33,0,0,1,2.54,1,3.81,3.81,0,0,1,1,2.72,3.81,3.81,0,0,1-1,2.72,3.33,3.33,0,0,1-2.54,1.05M40.65.53V7.37a4.65,4.65,0,0,0-1.76-1.6,5.3,5.3,0,0,0-2.48-.56,5.85,5.85,0,0,0-3,.79A5.3,5.3,0,0,0,31.3,8.21a7,7,0,0,0-.73,3.28,7.29,7.29,0,0,0,.74,3.33,5.44,5.44,0,0,0,2.07,2.25,5.94,5.94,0,0,0,3.1.8,5.33,5.33,0,0,0,2.45-.54,4.46,4.46,0,0,0,1.73-1.59v2h3V.53ZM19.09,5.21a4.69,4.69,0,0,0-4.45,2.43V5.32h-3v12.4h3v-6.1a3.74,3.74,0,0,1,.87-2.55,3.09,3.09,0,0,1,2.38-1,2.72,2.72,0,0,1,2,.75,2.82,2.82,0,0,1,.74,2v6.86h3V10a4.84,4.84,0,0,0-1.23-3.49,4.52,4.52,0,0,0-3.37-1.27M1.72,0A1.63,1.63,0,0,0,.49.51,1.82,1.82,0,0,0,0,1.81,1.74,1.74,0,0,0,.49,3.08a1.61,1.61,0,0,0,1.23.51A1.64,1.64,0,0,0,3,3.08a1.78,1.78,0,0,0,.49-1.27A1.78,1.78,0,0,0,3,.51,1.61,1.61,0,0,0,1.72,0M.24,17.73h3V5.33h-3Z"/><path class="cls-2" d="M228.92,33.89h6v-1.4h-4.49v-2.1h3.9V29h-3.9V26.92h4.35v-1.4h-5.89Zm-8.91,0h1.54V25.51H220Zm-13-6.95h2.5v7H211V26.94h2.5V25.52H207v1.42Zm-9,.29,1.4,3.52h-2.83Zm4.32,6.66-3.48-8.38h-1.6l-3.53,8.38h1.6l.71-1.77h3.93l.71,1.77Zm-15.1-6,.9-1.17a4.32,4.32,0,0,0-3.1-1.35,4.23,4.23,0,0,0-2.15.56,4.11,4.11,0,0,0-1.53,1.54,4.24,4.24,0,0,0-.56,2.18,4.33,4.33,0,0,0,.55,2.18,4.07,4.07,0,0,0,1.52,1.56A4.11,4.11,0,0,0,185,34a4,4,0,0,0,1.7-.39,4.68,4.68,0,0,0,1.47-1.06l-.91-1a3.39,3.39,0,0,1-1,.73,2.7,2.7,0,0,1-1.15.26,2.53,2.53,0,0,1-1.37-.38,2.7,2.7,0,0,1-1-1,3,3,0,0,1,0-2.86A2.65,2.65,0,0,1,185,26.83a2.67,2.67,0,0,1,1.18.29,3.46,3.46,0,0,1,1,.81m-14.74,6H174V25.51h-1.54Zm-8.87-2.6-4.15-5.78H158v8.38h1.5V28.12l4.13,5.77h1.46V25.51h-1.49v5.78Zm-18.29-.84V25.52h-1.54v4.93a4.06,4.06,0,0,0,.42,1.9,2.92,2.92,0,0,0,1.22,1.24,3.87,3.87,0,0,0,1.88.43,3.75,3.75,0,0,0,1.85-.43,3,3,0,0,0,1.21-1.24,4.06,4.06,0,0,0,.42-1.9V25.52h-1.54v4.93A2.21,2.21,0,0,1,148.7,32a1.83,1.83,0,0,1-1.43.56,1.93,1.93,0,0,1-1.45-.56,2.26,2.26,0,0,1-.52-1.56m-17.59,3.44h1.4v-6L131.63,33h1l2.5-5.14v6h1.41V25.51h-1.76l-2.64,5.4-2.67-5.4H127.7v8.38Zm-16.19,0h1.4v-6L115.44,33h1l2.5-5.14v6h1.41V25.51h-1.76l-2.64,5.4-2.66-5.4h-1.76v8.38Zm-11-7a2.54,2.54,0,0,1,1.34.38,2.7,2.7,0,0,1,1,1,3,3,0,0,1,.36,1.44,3,3,0,0,1-.36,1.45,2.73,2.73,0,0,1-1,1,2.45,2.45,0,0,1-1.34.38,2.61,2.61,0,0,1-1.36-.38,2.88,2.88,0,0,1-1.37-2.49,2.81,2.81,0,0,1,.37-1.44,2.75,2.75,0,0,1,1-1,2.61,2.61,0,0,1,1.36-.38m0-1.43A4.37,4.37,0,0,0,98.3,26a4.07,4.07,0,0,0-1.54,1.54,4.52,4.52,0,0,0,0,4.36,4.19,4.19,0,0,0,1.54,1.56,4.45,4.45,0,0,0,4.36,0,4.12,4.12,0,0,0,1.54-1.56,4.52,4.52,0,0,0,0-4.36A4.07,4.07,0,0,0,102.66,26a4.39,4.39,0,0,0-2.18-.56M89.42,27.93l.9-1.17a4.32,4.32,0,0,0-3.1-1.35,4.23,4.23,0,0,0-2.15.56,4,4,0,0,0-1.53,1.54,4.56,4.56,0,0,0,0,4.36,4.07,4.07,0,0,0,1.52,1.56,4.11,4.11,0,0,0,2.12.57,4,4,0,0,0,1.7-.39,4.68,4.68,0,0,0,1.47-1.06l-.91-1a3.39,3.39,0,0,1-1,.73,2.7,2.7,0,0,1-1.15.26,2.53,2.53,0,0,1-1.37-.38,2.7,2.7,0,0,1-1-1,3,3,0,0,1,0-2.86,2.65,2.65,0,0,1,2.35-1.39,2.67,2.67,0,0,1,1.18.29,3.46,3.46,0,0,1,1,.81M66.51,31.29l-4.14-5.77H60.91V33.9h1.51V28.13l4.13,5.77H68V25.52H66.52v5.77ZM52,33.89h1.54V25.51H52Z"/><path class="cls-1" d="M241.25,3h.48c.45,0,.58-.23.57-.48s-.17-.44-.57-.44h-.48Zm.53-1.28c.59,0,1,.31,1,.82a.73.73,0,0,1-.49.72,1.65,1.65,0,0,1,.43.72c.1.26.18.49.27.67h-.48s-.09-.23-.26-.6-.36-.67-.57-.67h-.38V4.68h-.42V1.76h.94Z"/><path class="cls-1" d="M241.79,1.12a2.1,2.1,0,1,0,2.09,2.09,2.09,2.09,0,0,0-2.09-2.09m0,4.5a2.41,2.41,0,1,1,2.41-2.41,2.41,2.41,0,0,1-2.41,2.41"/></g></g></svg>