<?xml version="1.0" encoding="UTF-8"?>
<svg width="1252px" height="700.54px" viewBox="0 0 1252 700.54" version="1.1" xmlns="http://www.w3.org/2000/svg" xmlns:xlink="http://www.w3.org/1999/xlink">
    <title>Film+ patroon</title>
    <g id="Film+-patroon" stroke="none" stroke-width="1" fill="none" fill-rule="evenodd">
        <polygon id="+-copy" fill="#A8C816" fill-rule="nonzero" opacity="0.208075945" transform="translate(555.500000, 168.832500) rotate(-90.000000) translate(-555.500000, -168.832500) " points="567.004265 335.3325 567.004265 181.238382 724.2075 181.238382 724.2075 156.426618 567.004265 156.426618 567.004265 2.3325 538.927794 2.3325 538.927794 156.426618 386.7925 156.426618 386.7925 181.238382 538.927794 181.238382 538.927794 335.3325"></polygon>
        <polygon id="+" fill="#A8C816" fill-rule="nonzero" opacity="0.320448765" transform="translate(43.000000, 657.540000) rotate(-90.000000) translate(-43.000000, -657.540000) " points="46.5411765 700.54 46.5411765 660.743922 86 660.743922 86 654.336078 46.5411765 654.336078 46.5411765 614.54 39.2901961 614.54 39.2901961 654.336078 1.8189894e-12 654.336078 1.8189894e-12 660.743922 39.2901961 660.743922 39.2901961 700.54"></polygon>
        <polygon id="+-copy-3" fill="#A8C816" fill-rule="nonzero" opacity="0.415788517" transform="translate(1108.500000, 323.040000) rotate(-90.000000) translate(-1108.500000, -323.040000) " points="1116.2 416.54 1116.2 330.006667 1202 330.006667 1202 316.073333 1116.2 316.073333 1116.2 229.54 1100.43333 229.54 1100.43333 316.073333 1015 316.073333 1015 330.006667 1100.43333 330.006667 1100.43333 416.54"></polygon>
    </g>
</svg>